<svg xmlns="http://www.w3.org/2000/svg" width="64" height="64" viewBox="-4 -4 72 72" fill="none">
  <defs>
    <linearGradient id="card-grad" x1="0" y1="0" x2="0" y2="1">
      <stop offset="0%" stop-color="#818cf8"/>
      <stop offset="100%" stop-color="#4f46e5"/>
    </linearGradient>
  </defs>
  <!-- Carta de tras -->
  <rect x="11" y="4" width="42" height="56" rx="5" fill="#3730a3" transform="rotate(-27 32 32)"/>
  <!-- Carta da frente -->
  <g transform="rotate(3 32 32)">
    <rect x="11" y="4" width="42" height="56" rx="5" fill="url(#card-grad)"/>
    <path d="M21,12 L18,16 L20,16 L20,19 L22,19 L22,16 L24,16 Z" fill="#ffffff"/>
    <path d="M43,52 L46,48 L44,48 L44,45 L42,45 L42,48 L40,48 Z" fill="#ffffff"/>
    <line x1="20" y1="32" x2="44" y2="32" stroke="#ffffff" stroke-width="2" stroke-linecap="round"/>
    <rect x="21" y="26" width="3" height="12" rx="1" fill="#ffffff"/>
    <rect x="25" y="24" width="3" height="16" rx="1" fill="#ffffff"/>
    <rect x="36" y="24" width="3" height="16" rx="1" fill="#ffffff"/>
    <rect x="40" y="26" width="3" height="12" rx="1" fill="#ffffff"/>
  </g>
</svg>
