<svg xmlns="http://www.w3.org/2000/svg" width="200" height="48" viewBox="0 0 200 48" fill="none">
  <!-- Icon mark outline (scaled to 40x40) -->
  <g transform="translate(4, 4) scale(0.625)">
    <rect x="11" y="4" width="42" height="56" rx="5" stroke="#818cf8" stroke-width="2.5" fill="none"/>
    <path d="M21,12 L18,16 L20,16 L20,19 L22,19 L22,16 L24,16 Z" fill="#6366f1"/>
    <path d="M43,52 L46,48 L44,48 L44,45 L42,45 L42,48 L40,48 Z" fill="#6366f1"/>
    <line x1="20" y1="32" x2="44" y2="32" stroke="#6366f1" stroke-width="2" stroke-linecap="round"/>
    <rect x="21" y="26" width="3" height="12" rx="1" fill="#6366f1"/>
    <rect x="25" y="24" width="3" height="16" rx="1" fill="#6366f1"/>
    <rect x="36" y="24" width="3" height="16" rx="1" fill="#6366f1"/>
    <rect x="40" y="26" width="3" height="12" rx="1" fill="#6366f1"/>
  </g>

  <!-- Wordmark: "Lift" + "Deck" as paths (Space Grotesk Bold 24px) -->
  <g transform="translate(52, 30)">
    <path d="M12.43 0L1.58 0L1.58-16.80L4.75-16.80L4.75-2.88L12.43-2.88L12.43 0ZM17.71 0L14.69 0L14.69-11.90L17.71-11.90L17.71 0ZM16.20-13.30L16.20-13.30Q15.38-13.30 14.82-13.82Q14.26-14.35 14.26-15.22L14.26-15.22Q14.26-16.08 14.82-16.61Q15.38-17.14 16.20-17.14L16.20-17.14Q17.04-17.14 17.59-16.61Q18.14-16.08 18.14-15.22L18.14-15.22Q18.14-14.35 17.59-13.82Q17.04-13.30 16.20-13.30ZM26.06 0L23.04 0L23.04-9.41L20.02-9.41L20.02-11.90L23.04-11.90L23.04-14.11Q23.04-15.34 23.77-16.07Q24.50-16.80 25.68-16.80L25.68-16.80L28.80-16.80L28.80-14.30L26.74-14.30Q26.06-14.30 26.06-13.58L26.06-13.58L26.06-11.90L29.18-11.90L29.18-9.41L26.06-9.41L26.06 0ZM39.22 0L35.86 0Q34.68 0 33.95-0.73Q33.22-1.46 33.22-2.69L33.22-2.69L33.22-9.41L30.24-9.41L30.24-11.90L33.22-11.90L33.22-15.60L36.24-15.60L36.24-11.90L39.50-11.90L39.50-9.41L36.24-9.41L36.24-3.22Q36.24-2.50 36.91-2.50L36.91-2.50L39.22-2.50L39.22 0Z" fill="#f5f5f3"/>
    <path d="M48.58 0L41.66 0L41.66-2.78L43.87-2.78L43.87-14.02L41.66-14.02L41.66-16.80L48.58-16.80Q51.96-16.80 53.72-15.08Q55.49-13.37 55.49-9.98L55.49-9.98L55.49-6.82Q55.49-3.43 53.72-1.72Q51.96 0 48.58 0L48.58 0ZM47.04-13.92L47.04-2.88L48.62-2.88Q50.54-2.88 51.43-3.89Q52.32-4.90 52.32-6.72L52.32-6.72L52.32-10.08Q52.32-11.93 51.43-12.92Q50.54-13.92 48.62-13.92L48.62-13.92L47.04-13.92ZM63.65 0.34L63.65 0.34Q61.87 0.34 60.52-0.42Q59.16-1.18 58.40-2.56Q57.65-3.94 57.65-5.81L57.65-5.81L57.65-6.10Q57.65-7.97 58.39-9.35Q59.14-10.73 60.48-11.48Q61.82-12.24 63.60-12.24L63.60-12.24Q65.35-12.24 66.65-11.46Q67.94-10.68 68.66-9.30Q69.38-7.92 69.38-6.10L69.38-6.10L69.38-5.06L60.72-5.06Q60.77-3.84 61.63-3.07Q62.50-2.30 63.74-2.30L63.74-2.30Q65.02-2.30 65.62-2.86Q66.22-3.41 66.53-4.08L66.53-4.08L69-2.78Q68.66-2.16 68.03-1.43Q67.39-0.70 66.34-0.18Q65.28 0.34 63.65 0.34ZM60.74-7.32L60.74-7.32L66.31-7.32Q66.22-8.35 65.48-8.98Q64.75-9.60 63.58-9.60L63.58-9.60Q62.35-9.60 61.63-8.98Q60.91-8.35 60.74-7.32ZM77.66 0.34L77.66 0.34Q75.94 0.34 74.53-0.38Q73.13-1.10 72.31-2.47Q71.50-3.84 71.50-5.78L71.50-5.78L71.50-6.12Q71.50-8.06 72.31-9.43Q73.13-10.80 74.53-11.52Q75.94-12.24 77.66-12.24L77.66-12.24Q79.37-12.24 80.59-11.64Q81.82-11.04 82.57-10.00Q83.33-8.95 83.57-7.63L83.57-7.63L80.64-7.01Q80.54-7.73 80.21-8.30Q79.87-8.88 79.26-9.22Q78.65-9.55 77.74-9.55L77.74-9.55Q76.82-9.55 76.09-9.16Q75.36-8.76 74.94-7.98Q74.52-7.20 74.52-6.07L74.52-6.07L74.52-5.83Q74.52-4.70 74.94-3.92Q75.36-3.14 76.09-2.75Q76.82-2.35 77.74-2.35L77.74-2.35Q79.10-2.35 79.81-3.06Q80.52-3.77 80.71-4.92L80.71-4.92L83.64-4.22Q83.33-2.95 82.57-1.91Q81.82-0.86 80.59-0.26Q79.37 0.34 77.66 0.34ZM89.16 0L86.14 0L86.14-16.80L89.16-16.80L89.16-7.51L89.59-7.51L93.53-11.90L97.46-11.90L91.97-6.14L97.66 0L93.77 0L89.59-4.73L89.16-4.73L89.16 0Z" fill="#818cf8"/>
  </g>
</svg>
