<svg xmlns="http://www.w3.org/2000/svg" width="200" height="220" viewBox="0 0 200 220" fill="none">
  <!-- Icon mark outline (120x120, centered horizontally) -->
  <g transform="translate(40, 10) scale(1.875)">
    <rect x="11" y="4" width="42" height="56" rx="5" stroke="#818cf8" stroke-width="2.5" fill="none"/>
    <path d="M21,12 L18,16 L20,16 L20,19 L22,19 L22,16 L24,16 Z" fill="#6366f1"/>
    <path d="M43,52 L46,48 L44,48 L44,45 L42,45 L42,48 L40,48 Z" fill="#6366f1"/>
    <line x1="20" y1="32" x2="44" y2="32" stroke="#6366f1" stroke-width="2" stroke-linecap="round"/>
    <rect x="21" y="26" width="3" height="12" rx="1" fill="#6366f1"/>
    <rect x="25" y="24" width="3" height="16" rx="1" fill="#6366f1"/>
    <rect x="36" y="24" width="3" height="16" rx="1" fill="#6366f1"/>
    <rect x="40" y="26" width="3" height="12" rx="1" fill="#6366f1"/>
  </g>

  <!-- Wordmark: "Lift" + "Deck" as paths (Space Grotesk Bold 36px, centered) -->
  <g transform="translate(26.5, 195)">
    <path d="M18.65 0L2.38 0L2.38-25.20L7.13-25.20L7.13-4.32L18.65-4.32L18.65 0ZM26.57 0L22.03 0L22.03-17.86L26.57-17.86L26.57 0ZM24.30-19.94L24.30-19.94Q23.08-19.94 22.23-20.74Q21.38-21.53 21.38-22.82L21.38-22.82Q21.38-24.12 22.23-24.91Q23.08-25.70 24.30-25.70L24.30-25.70Q25.56-25.70 26.39-24.91Q27.22-24.12 27.22-22.82L27.22-22.82Q27.22-21.53 26.39-20.74Q25.56-19.94 24.30-19.94ZM39.10 0L34.56 0L34.56-14.11L30.02-14.11L30.02-17.86L34.56-17.86L34.56-21.17Q34.56-23.00 35.66-24.10Q36.76-25.20 38.52-25.20L38.52-25.20L43.20-25.20L43.20-21.46L40.10-21.46Q39.10-21.46 39.10-20.38L39.10-20.38L39.10-17.86L43.78-17.86L43.78-14.11L39.10-14.11L39.10 0ZM58.82 0L53.78 0Q52.02 0 50.92-1.10Q49.82-2.20 49.82-4.03L49.82-4.03L49.82-14.11L45.36-14.11L45.36-17.86L49.82-17.86L49.82-23.40L54.36-23.40L54.36-17.86L59.26-17.86L59.26-14.11L54.36-14.11L54.36-4.82Q54.36-3.74 55.37-3.74L55.37-3.74L58.82-3.74L58.82 0Z" fill="#f5f5f3"/>
    <path d="M72.86 0L62.50 0L62.50-4.18L65.81-4.18L65.81-21.02L62.50-21.02L62.50-25.20L72.86-25.20Q77.94-25.20 80.59-22.63Q83.23-20.05 83.23-14.98L83.23-14.98L83.23-10.22Q83.23-5.15 80.59-2.57Q77.94 0 72.86 0L72.86 0ZM70.56-20.88L70.56-4.32L72.94-4.32Q75.82-4.32 77.15-5.83Q78.48-7.34 78.48-10.08L78.48-10.08L78.48-15.12Q78.48-17.89 77.15-19.39Q75.82-20.88 72.94-20.88L72.94-20.88L70.56-20.88ZM95.47 0.50L95.47 0.50Q92.81 0.50 90.77-0.63Q88.74-1.76 87.61-3.83Q86.47-5.90 86.47-8.71L86.47-8.71L86.47-9.14Q86.47-11.95 87.59-14.02Q88.70-16.09 90.72-17.23Q92.74-18.36 95.40-18.36L95.40-18.36Q98.03-18.36 99.97-17.19Q101.92-16.02 103.00-13.95Q104.08-11.88 104.08-9.14L104.08-9.14L104.08-7.60L91.08-7.60Q91.15-5.76 92.45-4.61Q93.74-3.46 95.62-3.46L95.62-3.46Q97.52-3.46 98.42-4.28Q99.32-5.11 99.79-6.12L99.79-6.12L103.50-4.18Q103.00-3.24 102.04-2.14Q101.09-1.04 99.50-0.27Q97.92 0.50 95.47 0.50ZM91.12-10.98L91.12-10.98L99.47-10.98Q99.32-12.53 98.23-13.46Q97.13-14.40 95.36-14.40L95.36-14.40Q93.53-14.40 92.45-13.46Q91.37-12.53 91.12-10.98ZM116.50 0.50L116.50 0.50Q113.90 0.50 111.80-0.58Q109.69-1.66 108.47-3.71Q107.24-5.76 107.24-8.68L107.24-8.68L107.24-9.18Q107.24-12.10 108.47-14.15Q109.69-16.20 111.80-17.28Q113.90-18.36 116.50-18.36L116.50-18.36Q119.05-18.36 120.89-17.46Q122.72-16.56 123.86-14.99Q124.99-13.43 125.35-11.45L125.35-11.45L120.96-10.51Q120.82-11.59 120.31-12.46Q119.81-13.32 118.89-13.82Q117.97-14.33 116.60-14.33L116.60-14.33Q115.24-14.33 114.14-13.73Q113.04-13.14 112.41-11.97Q111.78-10.80 111.78-9.11L111.78-9.11L111.78-8.75Q111.78-7.06 112.41-5.89Q113.04-4.72 114.14-4.12Q115.24-3.53 116.60-3.53L116.60-3.53Q118.66-3.53 119.72-4.59Q120.78-5.65 121.07-7.38L121.07-7.38L125.46-6.34Q124.99-4.43 123.86-2.86Q122.72-1.30 120.89-0.40Q119.05 0.50 116.50 0.50ZM133.74 0L129.20 0L129.20-25.20L133.74-25.20L133.74-11.27L134.39-11.27L140.29-17.86L146.20-17.86L137.95-9.22L146.48 0L140.65 0L134.39-7.09L133.74-7.09L133.74 0Z" fill="#818cf8"/>
  </g>
</svg>
