<svg xmlns="http://www.w3.org/2000/svg" width="135" height="28" viewBox="0 0 135 28" fill="none">
  <!-- "Lift" in Space Grotesk Bold 32px, baseline at y=22.40 -->
  <g transform="translate(2, 25)">
    <path d="M16.58 0L2.11 0L2.11-22.40L6.34-22.40L6.34-3.84L16.58-3.84L16.58 0ZM23.62 0L19.58 0L19.58-15.87L23.62-15.87L23.62 0ZM21.60-17.73L21.60-17.73Q20.51-17.73 19.76-18.43Q19.01-19.14 19.01-20.29L19.01-20.29Q19.01-21.44 19.76-22.14Q20.51-22.85 21.60-22.85L21.60-22.85Q22.72-22.85 23.46-22.14Q24.19-21.44 24.19-20.29L24.19-20.29Q24.19-19.14 23.46-18.43Q22.72-17.73 21.60-17.73ZM34.75 0L30.72 0L30.72-12.54L26.69-12.54L26.69-15.87L30.72-15.87L30.72-18.82Q30.72-20.45 31.70-21.42Q32.67-22.40 34.24-22.40L34.24-22.40L38.40-22.40L38.40-19.07L35.65-19.07Q34.75-19.07 34.75-18.11L34.75-18.11L34.75-15.87L38.91-15.87L38.91-12.54L34.75-12.54L34.75 0ZM52.29 0L47.81 0Q46.24 0 45.26-0.98Q44.29-1.95 44.29-3.58L44.29-3.58L44.29-12.54L40.32-12.54L40.32-15.87L44.29-15.87L44.29-20.80L48.32-20.80L48.32-15.87L52.67-15.87L52.67-12.54L48.32-12.54L48.32-4.29Q48.32-3.33 49.22-3.33L49.22-3.33L52.29-3.33L52.29 0Z" fill="#f5f5f3"/>
    <!-- "Deck" -->
    <path d="M64.77 0L55.55 0L55.55-3.71L58.50-3.71L58.50-18.69L55.55-18.69L55.55-22.40L64.77-22.40Q69.28-22.40 71.63-20.11Q73.98-17.82 73.98-13.31L73.98-13.31L73.98-9.09Q73.98-4.58 71.63-2.29Q69.28 0 64.77 0L64.77 0ZM62.72-18.56L62.72-3.84L64.83-3.84Q67.39-3.84 68.58-5.18Q69.76-6.53 69.76-8.96L69.76-8.96L69.76-13.44Q69.76-15.90 68.58-17.23Q67.39-18.56 64.83-18.56L64.83-18.56L62.72-18.56ZM84.86 0.45L84.86 0.45Q82.50 0.45 80.69-0.56Q78.88-1.57 77.87-3.41Q76.86-5.25 76.86-7.74L76.86-7.74L76.86-8.13Q76.86-10.62 77.86-12.46Q78.85-14.30 80.64-15.31Q82.43-16.32 84.80-16.32L84.80-16.32Q87.14-16.32 88.86-15.28Q90.59-14.24 91.55-12.40Q92.51-10.56 92.51-8.13L92.51-8.13L92.51-6.75L80.96-6.75Q81.02-5.12 82.18-4.10Q83.33-3.07 84.99-3.07L84.99-3.07Q86.69-3.07 87.49-3.81Q88.29-4.54 88.70-5.44L88.70-5.44L92-3.71Q91.55-2.88 90.70-1.90Q89.86-0.93 88.45-0.24Q87.04 0.45 84.86 0.45ZM80.99-9.76L80.99-9.76L88.42-9.76Q88.29-11.14 87.31-11.97Q86.34-12.80 84.77-12.80L84.77-12.80Q83.14-12.80 82.18-11.97Q81.22-11.14 80.99-9.76ZM103.55 0.45L103.55 0.45Q101.25 0.45 99.38-0.51Q97.50-1.47 96.42-3.30Q95.33-5.12 95.33-7.71L95.33-7.71L95.33-8.16Q95.33-10.75 96.42-12.58Q97.50-14.40 99.38-15.36Q101.25-16.32 103.55-16.32L103.55-16.32Q105.82-16.32 107.46-15.52Q109.09-14.72 110.10-13.33Q111.10-11.94 111.42-10.18L111.42-10.18L107.52-9.34Q107.39-10.30 106.94-11.07Q106.50-11.84 105.68-12.29Q104.86-12.74 103.65-12.74L103.65-12.74Q102.43-12.74 101.46-12.21Q100.48-11.68 99.92-10.64Q99.36-9.60 99.36-8.10L99.36-8.10L99.36-7.78Q99.36-6.27 99.92-5.23Q100.48-4.19 101.46-3.66Q102.43-3.14 103.65-3.14L103.65-3.14Q105.47-3.14 106.42-4.08Q107.36-5.02 107.62-6.56L107.62-6.56L111.52-5.63Q111.10-3.94 110.10-2.54Q109.09-1.15 107.46-0.35Q105.82 0.45 103.55 0.45ZM118.88 0L114.85 0L114.85-22.40L118.88-22.40L118.88-10.02L119.46-10.02L124.70-15.87L129.95-15.87L122.62-8.19L130.21 0L125.02 0L119.46-6.30L118.88-6.30L118.88 0Z" fill="#818cf8"/>
  </g>
</svg>
